<svg width="32" height="32" viewBox="0 0 32 32" fill="none" xmlns="http://www.w3.org/2000/svg">
<circle cx="16" cy="16" r="16" fill="#B7D8FF"/>
<path d="M16.7622 18.726C15.9249 18.7266 15.116 18.4225 14.4864 17.8705C14.4209 17.8229 14.3595 17.7698 14.3029 17.7118C14.1592 17.5666 14.0785 17.3706 14.0781 17.1663C14.0778 16.962 14.1578 16.7658 14.3009 16.62C14.444 16.4742 14.6388 16.3906 14.843 16.3872C15.0473 16.3839 15.2447 16.461 15.3926 16.6019C15.4271 16.6226 15.4585 16.648 15.4859 16.6774C15.8504 17.0062 16.3275 17.1821 16.8183 17.1687C17.3091 17.1552 17.7758 16.9534 18.1218 16.605L21.6583 13.0677C22.0105 12.7044 22.2057 12.2172 22.2018 11.7112C22.1979 11.2053 21.9951 10.7211 21.6374 10.3633C21.2796 10.0056 20.7954 9.80282 20.2895 9.79889C19.7835 9.79497 19.2963 9.99018 18.933 10.3424L17.5874 11.6864C17.4407 11.8281 17.2443 11.9064 17.0403 11.9047C16.8364 11.9029 16.6413 11.8211 16.4971 11.6769C16.3529 11.5327 16.2711 11.3376 16.2694 11.1337C16.2676 10.9298 16.346 10.7333 16.4877 10.5866L17.8324 9.24182C18.4856 8.58863 19.3715 8.22168 20.2953 8.22168C21.219 8.22168 22.1049 8.58863 22.7581 9.24182C23.4113 9.895 23.7782 10.7809 23.7782 11.7047C23.7782 12.6284 23.4113 13.5143 22.7581 14.1675L19.2208 17.7048C18.8983 18.0286 18.515 18.2855 18.093 18.4607C17.6709 18.636 17.2184 18.7261 16.7614 18.726H16.7622Z" fill="#277DFE"/>
<path d="M11.7051 23.7769C11.0161 23.7776 10.3425 23.5737 9.76939 23.1912C9.19632 22.8087 8.74963 22.2648 8.48588 21.6283C8.22213 20.9918 8.15318 20.2913 8.28777 19.6156C8.42235 18.9399 8.75442 18.3193 9.24191 17.8324L12.78 14.2958C13.4008 13.6723 14.2355 13.3083 15.1148 13.2775C15.9942 13.2467 16.8523 13.5516 17.5151 14.1302C17.5807 14.1778 17.6421 14.2309 17.6987 14.2888C17.8423 14.4341 17.9231 14.63 17.9234 14.8343C17.9238 15.0386 17.8438 15.2349 17.7007 15.3806C17.5576 15.5264 17.3628 15.61 17.1586 15.6134C16.9543 15.6168 16.7569 15.5397 16.609 15.3987C16.5745 15.3781 16.5431 15.3527 16.5157 15.3233C16.1512 14.9943 15.6741 14.8182 15.1833 14.8317C14.6924 14.8452 14.2257 15.0471 13.8798 15.3956L10.3425 18.933C9.99027 19.2962 9.79507 19.7835 9.79899 20.2894C9.80291 20.7954 10.0056 21.2795 10.3634 21.6373C10.7212 21.9951 11.2054 22.1978 11.7113 22.2018C12.2173 22.2057 12.7045 22.0105 13.0678 21.6583L14.4126 20.3143C14.5593 20.1726 14.7557 20.0942 14.9597 20.096C15.1636 20.0978 15.3587 20.1796 15.5029 20.3238C15.6471 20.468 15.7289 20.663 15.7307 20.867C15.7324 21.0709 15.654 21.2674 15.5124 21.4141L14.1684 22.7581C13.8451 23.0818 13.4611 23.3385 13.0384 23.5133C12.6157 23.6882 12.1626 23.7778 11.7051 23.7769Z" fill="#277DFE"/>
</svg>
