<svg width="32" height="32" viewBox="0 0 32 32" fill="none" xmlns="http://www.w3.org/2000/svg">
<circle cx="16" cy="16" r="16" fill="#B7D8FF"/>
<path d="M23.5522 13.8926L20.4411 10.7815C20.3686 10.709 20.2825 10.6514 20.1877 10.6122C20.093 10.5729 19.9914 10.5527 19.8889 10.5527C19.6818 10.5527 19.4831 10.635 19.3367 10.7815C19.1902 10.9279 19.1079 11.1266 19.1079 11.3337C19.1079 11.5408 19.1902 11.7395 19.3367 11.8859L21.1256 13.667H12.1111C11.9048 13.667 11.707 13.749 11.5611 13.8948C11.4153 14.0407 11.3333 14.2385 11.3333 14.4448C11.3333 14.6511 11.4153 14.8489 11.5611 14.9948C11.707 15.1406 11.9048 15.2226 12.1111 15.2226H23C23.1536 15.2218 23.3034 15.1756 23.4308 15.0898C23.5581 15.004 23.6572 14.8824 23.7156 14.7404C23.7751 14.5987 23.7914 14.4426 23.7623 14.2917C23.7333 14.1408 23.6601 14.002 23.5522 13.8926ZM19.8889 16.7781H9C8.84645 16.7789 8.69656 16.8251 8.56922 16.9109C8.44188 16.9967 8.34279 17.1183 8.28444 17.2604C8.22488 17.402 8.20861 17.5581 8.23768 17.709C8.26675 17.8599 8.33986 17.9988 8.44778 18.1081L11.5589 21.2192C11.6312 21.2921 11.7172 21.35 11.812 21.3895C11.9068 21.429 12.0084 21.4493 12.1111 21.4493C12.2138 21.4493 12.3154 21.429 12.4102 21.3895C12.505 21.35 12.591 21.2921 12.6633 21.2192C12.7362 21.1469 12.7941 21.0609 12.8336 20.9661C12.8731 20.8714 12.8934 20.7697 12.8934 20.667C12.8934 20.5644 12.8731 20.4627 12.8336 20.3679C12.7941 20.2731 12.7362 20.1871 12.6633 20.1148L10.8744 18.3337H19.8889C20.0952 18.3337 20.293 18.2518 20.4389 18.1059C20.5847 17.96 20.6667 17.7622 20.6667 17.5559C20.6667 17.3496 20.5847 17.1518 20.4389 17.0059C20.293 16.8601 20.0952 16.7781 19.8889 16.7781Z" fill="#1A6AF4"/>
</svg>
