<svg width="56" height="60" viewBox="0 0 56 60" fill="none" xmlns="http://www.w3.org/2000/svg">
<path d="M17.582 6.27393C18.1343 6.27393 18.582 5.82621 18.582 5.27393C18.582 4.72164 18.1343 4.27393 17.582 4.27393C17.0297 4.27393 16.582 4.72164 16.582 5.27393C16.582 5.82621 17.0297 6.27393 17.582 6.27393Z" fill="#BE9A6D"/>
<path fill-rule="evenodd" clip-rule="evenodd" d="M14 56V40.661C14 40.258 13.758 39.894 13.386 39.739C7.596 37.316 2.73801 30.374 2.00401 24.466C1.97801 24.081 2.16603 23.726 2.48903 23.538C2.81703 23.347 3.22501 23.361 3.53801 23.573C6.76201 25.794 9.71901 27.138 12.659 28.203C12.966 28.315 13.307 28.269 13.574 28.082C13.841 27.895 14 27.589 14 27.263V16.098C14 13.512 14.696 11.088 15.912 9.004C16.19 8.527 16.029 7.91399 15.552 7.63599C15.076 7.35799 14.463 7.519 14.185 7.996C12.796 10.376 12 13.144 12 16.098V25.816C9.64101 24.882 7.24401 23.698 4.66801 21.923C4.66601 21.922 4.664 21.92 4.662 21.919C3.711 21.273 2.474 21.231 1.481 21.81C0.489002 22.39 -0.0839756 23.487 0.0100244 24.633C0.0110244 24.646 0.0120222 24.659 0.0140222 24.672C0.784022 31.001 5.85901 38.408 12 41.31V56C12 56.552 12.448 57 13 57C13.552 57 14 56.552 14 56ZM21.471 3.651C23.446 2.597 25.702 2 28.098 2H28.1C31.787 2 35.322 3.46401 37.929 6.07101C40.536 8.67801 42 12.213 42 15.9V27.263C42 27.589 42.159 27.895 42.426 28.082C42.693 28.269 43.034 28.315 43.341 28.203C46.281 27.138 49.238 25.794 52.462 23.573C52.775 23.361 53.183 23.347 53.511 23.538C53.831 23.725 54.019 24.075 53.999 24.443C53.269 30.363 48.409 37.314 42.614 39.739C42.242 39.894 42 40.258 42 40.661V56C42 56.552 42.448 57 43 57C43.552 57 44 56.552 44 56V41.31C50.141 38.408 55.216 31.001 55.986 24.672C55.988 24.659 55.989 24.646 55.99 24.633C56.084 23.487 55.511 22.39 54.519 21.81C53.526 21.231 52.289 21.273 51.338 21.919C51.336 21.92 51.334 21.922 51.332 21.923C48.756 23.698 46.359 24.882 44 25.816V15.9C44 11.683 42.325 7.63901 39.343 4.65701C36.361 1.67501 32.317 0 28.1 0H28.098C25.362 0 22.785 0.682993 20.529 1.88699C20.042 2.14699 19.858 2.75299 20.118 3.23999C20.378 3.72699 20.984 3.911 21.471 3.651Z" fill="#BE9A6D"/>
<path fill-rule="evenodd" clip-rule="evenodd" d="M22.999 11.001C22.1965 11.001 21.4515 11.4964 20.8899 12.3473C19.954 13.7629 19.499 16.1973 19.499 16.6679C19.499 18.4879 21.049 20.0015 22.999 20.0015C24.949 20.0015 26.499 18.4879 26.499 16.6679C26.499 16.1973 26.044 13.7629 25.1082 12.3473C24.5465 11.4964 23.8015 11.001 22.999 11.001ZM22.999 13.0014C23.1224 13.0014 23.1924 13.129 23.2865 13.241C23.4415 13.4277 23.5774 13.661 23.6999 13.913C24.219 14.9778 24.499 16.3638 24.499 16.6679C24.499 17.4239 23.809 18.001 22.999 18.001C22.189 18.001 21.499 17.4239 21.499 16.6679C21.499 16.3638 21.779 14.9778 22.2982 13.913C22.4207 13.661 22.5565 13.4277 22.7115 13.241C22.8057 13.129 22.8757 13.0014 22.999 13.0014Z" fill="#BE9A6D"/>
<path fill-rule="evenodd" clip-rule="evenodd" d="M32.499 11.001C31.6965 11.001 30.9515 11.4964 30.3899 12.3473C29.454 13.7629 28.999 16.1973 28.999 16.6679C28.999 18.4879 30.549 20.0015 32.499 20.0015C34.449 20.0015 35.999 18.4879 35.999 16.6679C35.999 16.1973 35.544 13.7629 34.6082 12.3473C34.0465 11.4964 33.3015 11.001 32.499 11.001ZM32.499 13.0014C32.6224 13.0014 32.6924 13.129 32.7865 13.241C32.9415 13.4277 33.0774 13.661 33.1999 13.913C33.719 14.9778 33.999 16.3638 33.999 16.6679C33.999 17.4239 33.309 18.001 32.499 18.001C31.689 18.001 30.999 17.4239 30.999 16.6679C30.999 16.3638 31.279 14.9778 31.7982 13.913C31.9207 13.661 32.0565 13.4277 32.2115 13.241C32.3057 13.129 32.3757 13.0014 32.499 13.0014Z" fill="#BE9A6D"/>
<path fill-rule="evenodd" clip-rule="evenodd" d="M22.126 28.497C22.273 29.141 22.703 29.697 23.311 29.997C24.068 30.369 24.969 30.281 25.64 29.771L25.637 29.773C26.299 29.287 27.116 29 28 29C28.861 29 29.661 29.272 30.272 29.79C30.284 29.801 30.297 29.811 30.31 29.821C31.002 30.352 31.936 30.444 32.719 30.058C33.502 29.673 33.999 28.876 34 28.003V28C34 24.689 31.311 22 28 22C24.689 22 22 24.689 22 28C22 28.171 22.026 28.332 22.126 28.497ZM24.014 27.672C24.181 25.617 25.903 24 28 24C30.208 24 32 25.792 32 28V28.001C32 28.113 31.936 28.215 31.836 28.264C31.742 28.31 31.632 28.303 31.546 28.247C30.581 27.442 29.342 27 28 27C26.67 27 25.441 27.434 24.446 28.167C24.44 28.171 24.435 28.175 24.43 28.179C24.362 28.231 24.271 28.24 24.195 28.202C24.118 28.165 24.07 28.087 24.07 28.002C24.07 27.886 24.05 27.775 24.014 27.672Z" fill="#BE9A6D"/>
<path fill-rule="evenodd" clip-rule="evenodd" d="M30 56.0001C30 57.1041 29.1036 58.0005 27.9996 58.0005C26.8956 58.0005 25.9992 57.1041 25.9992 56.0001C25.9992 55.4481 25.5516 55.0005 24.9996 55.0005C24.4476 55.0005 24 55.4481 24 56.0001C24 58.2081 25.7916 59.9997 27.9996 59.9997C30.2076 59.9997 31.9992 58.2081 31.9992 56.0001C31.9992 55.4481 31.5516 55.0005 30.9996 55.0005C30.4476 55.0005 30 55.4481 30 56.0001Z" fill="#BE9A6D"/>
<path fill-rule="evenodd" clip-rule="evenodd" d="M37.0512 55.0017L36.9996 55.0005C36.4644 55.0005 36.0276 55.4205 36.0012 55.9485L35.9964 56.1033C35.9436 57.1593 35.0688 58.0005 33.9996 58.0005C32.8956 58.0005 31.9992 57.1041 31.9992 56.0001C31.9992 55.4481 31.5516 55.0005 30.9996 55.0005C30.4476 55.0005 30 55.4481 30 56.0001C30 58.2081 31.7916 59.9997 33.9996 59.9997C36.2076 59.9997 37.9992 58.2081 37.9992 56.0001C37.9992 55.4649 37.5792 55.0281 37.0512 55.0017Z" fill="#BE9A6D"/>
<path fill-rule="evenodd" clip-rule="evenodd" d="M19.0512 55.0017L18.9996 55.0005C18.4644 55.0005 18.0276 55.4205 18.0012 55.9485L17.9964 56.1033C17.9436 57.1593 17.0688 58.0005 15.9996 58.0005C14.8956 58.0005 13.9992 57.1041 13.9992 56.0001C13.9992 55.4481 13.5516 55.0005 12.9996 55.0005C12.4476 55.0005 12 55.4481 12 56.0001C12 58.2081 13.7916 59.9997 15.9996 59.9997C18.2076 59.9997 19.9992 58.2081 19.9992 56.0001C19.9992 55.4649 19.5792 55.0281 19.0512 55.0017Z" fill="#BE9A6D"/>
<path fill-rule="evenodd" clip-rule="evenodd" d="M43.0512 55.0017L42.9996 55.0005C42.4644 55.0005 42.0276 55.4205 42.0012 55.9485L41.9964 56.1033C41.9436 57.1593 41.0688 58.0005 39.9996 58.0005C38.8956 58.0005 37.9992 57.1041 37.9992 56.0001C37.9992 55.4481 37.5516 55.0005 36.9996 55.0005C36.4476 55.0005 36 55.4481 36 56.0001C36 58.2081 37.7916 59.9997 39.9996 59.9997C42.2076 59.9997 43.9992 58.2081 43.9992 56.0001C43.9992 55.4649 43.5792 55.0281 43.0512 55.0017Z" fill="#BE9A6D"/>
<path fill-rule="evenodd" clip-rule="evenodd" d="M25.0512 55.0017L24.9996 55.0005C24.4644 55.0005 24.0276 55.4205 24.0012 55.9485L23.9964 56.1033C23.9436 57.1593 23.0688 58.0005 21.9996 58.0005C20.8956 58.0005 19.9992 57.1041 19.9992 56.0001C19.9992 55.4481 19.5516 55.0005 18.9996 55.0005C18.4476 55.0005 18 55.4481 18 56.0001C18 58.2081 19.7916 59.9997 21.9996 59.9997C24.2076 59.9997 25.9992 58.2081 25.9992 56.0001C25.9992 55.4649 25.5792 55.0281 25.0512 55.0017Z" fill="#BE9A6D"/>
<path fill-rule="evenodd" clip-rule="evenodd" d="M18 52V56C18 56.552 18.448 57 19 57C19.552 57 20 56.552 20 56V52C20 51.448 19.552 51 19 51C18.448 51 18 51.448 18 52Z" fill="#BE9A6D"/>
<path fill-rule="evenodd" clip-rule="evenodd" d="M24 52V56C24 56.552 24.448 57 25 57C25.552 57 26 56.552 26 56V52C26 51.448 25.552 51 25 51C24.448 51 24 51.448 24 52Z" fill="#BE9A6D"/>
<path fill-rule="evenodd" clip-rule="evenodd" d="M30 52V56C30 56.552 30.448 57 31 57C31.552 57 32 56.552 32 56V52C32 51.448 31.552 51 31 51C30.448 51 30 51.448 30 52Z" fill="#BE9A6D"/>
<path fill-rule="evenodd" clip-rule="evenodd" d="M36 52V56C36 56.552 36.448 57 37 57C37.552 57 38 56.552 38 56V52C38 51.448 37.552 51 37 51C36.448 51 36 51.448 36 52Z" fill="#BE9A6D"/>
</svg>
