<svg width="158" height="40" viewBox="0 0 158 40" fill="none" xmlns="http://www.w3.org/2000/svg">
<path d="M64.7413 17.5835L60.9599 16.8728C58.4627 16.3753 57.8919 16.091 57.8919 14.7406C57.8919 13.3903 58.7481 12.8217 61.5306 12.8217C64.67 12.8217 65.5975 13.5324 65.5975 15.8067V16.162L70.3064 14.8828C69.9497 11.187 67.3098 8.48633 61.6733 8.48633C55.5374 8.48633 53.183 11.6845 53.183 14.9538C53.183 18.2942 54.8953 20.2842 58.9621 20.9949L62.7436 21.6345C65.7402 22.132 66.0969 22.6295 66.0969 24.051C66.0969 25.4724 65.4548 26.041 62.6722 26.041C58.8194 26.041 57.9633 25.4013 57.9633 23.056V22.7006L53.2543 23.9799C53.611 28.1731 56.5363 30.3763 62.3868 30.3763C68.4514 30.3763 70.7345 27.3203 70.7345 23.9088C70.8059 20.8528 69.2362 18.5074 64.7413 17.5835Z" fill="black"/>
<path d="M88.0007 20.7105V20.3551C88.0007 16.4462 84.8614 13.8165 80.5805 13.8165C75.2295 13.8165 72.1615 17.0858 72.1615 22.203C72.1615 27.249 75.0154 30.4472 80.2952 30.4472C84.7187 30.4472 87.9294 27.8176 87.9294 23.9087V23.5533H83.1491V23.7665C83.1491 25.5433 82.1502 26.183 80.1525 26.183C77.8693 26.183 76.8705 25.1169 76.8705 22.1319C76.8705 19.1469 77.8693 18.0808 80.1525 18.0808C82.1502 18.0808 83.1491 18.6494 83.1491 20.4972V20.7815H88.0007V20.7105Z" fill="black"/>
<path d="M97.6326 13.7451C93.1377 13.7451 90.1411 16.2326 90.1411 20.0705V20.4258L94.7073 20.0705C94.7073 18.4358 95.4922 17.9383 97.4185 17.9383C99.2736 17.9383 100.344 18.2937 100.344 20.1415V20.639L94.85 21.4919C91.568 21.9894 89.7843 23.553 89.7843 25.9694C89.7843 28.8833 91.9961 30.3758 94.85 30.3758C97.8466 30.3758 99.4163 29.0965 100.344 27.8883H100.558V30.0205H104.981V20.568C104.839 16.3748 102.342 13.7451 97.6326 13.7451ZM96.3483 26.7512C94.9214 26.7512 94.2792 26.4669 94.2792 25.614C94.2792 24.9744 94.7073 24.619 95.7062 24.4769L100.272 23.7662C100.272 26.2537 98.2747 26.7512 96.3483 26.7512Z" fill="black"/>
<path d="M107.693 10.0494V30.0916H112.473V8.77014L107.693 10.0494Z" fill="black"/>
<path d="M115.469 10.0494V30.0916H120.25V8.77014L115.469 10.0494Z" fill="black"/>
<path fill-rule="evenodd" clip-rule="evenodd" d="M130.667 13.7451C125.53 13.7451 122.462 17.0144 122.462 22.0605C122.462 27.1065 125.53 30.3758 130.667 30.3758C135.804 30.3758 138.8 27.1065 138.8 22.0605C138.8 17.0144 135.804 13.7451 130.667 13.7451ZM130.813 26.481C128.376 26.481 126.393 24.4982 126.393 22.061C126.393 19.6237 128.376 17.641 130.813 17.641C131.182 17.641 131.551 17.6864 131.915 17.7773C131.989 17.8001 132.057 17.8512 132.091 17.9194L132.162 18.0576C132.689 19.0848 133.591 19.8694 134.682 20.2487C134.795 20.2884 134.869 20.3907 134.869 20.51V23.6063C134.869 23.7256 134.795 23.8278 134.682 23.8676C133.591 24.247 132.688 25.0305 132.158 26.0565L132.085 26.1969C132.051 26.2708 131.983 26.3219 131.909 26.3389C131.546 26.4355 131.176 26.481 130.813 26.481Z" fill="black"/>
<path d="M150.359 13.7451C147.933 13.7451 146.078 14.669 145.222 16.4458H145.079V14.1005H140.655V35.4219L145.436 34.1426V27.9594H145.578C146.292 29.3098 147.861 30.3758 150.43 30.3758C154.782 30.3758 157.208 27.1065 157.208 22.0605C157.279 17.0144 154.854 13.7451 150.359 13.7451ZM148.932 26.3248C146.649 26.3248 145.436 25.543 145.436 23.3398V20.7812C145.436 18.649 146.72 17.7962 148.932 17.7962C151.714 17.7962 152.428 19.1465 152.428 22.0605C152.428 24.9744 151.714 26.3248 148.932 26.3248Z" fill="black"/>
<path d="M28.9518 2.38531C25.7756 5.65771 22.5995 8.91808 19.4233 12.1905C19.3872 12.2145 19.3632 12.2386 19.3271 12.2747L12.4093 19.1925C11.7476 19.8542 11.7476 20.949 12.4093 21.6107L18.9662 28.1675L10.8934 36.6252C9.64222 35.771 8.45116 34.7845 7.27214 33.5934C-1.18557 25.1477 -1.47431 14.7049 7.04355 6.17504C13.7929 -0.574284 21.7573 -1.71722 28.9518 2.38531Z" fill="url(#paint0_linear)"/>
<path d="M34.6303 33.75C27.893 40.4753 19.9767 41.6784 12.8303 37.8165L15.6696 34.8448C17.8472 32.5951 20.0128 30.3573 22.1903 28.1075L24.38 25.9179L28.675 21.6229C29.3367 20.9612 29.3367 19.8664 28.675 19.2047L26.7019 17.2316L22.1663 12.696L30.1548 4.33452L30.8526 3.61267C32.0316 4.4428 33.2106 5.44136 34.3295 6.56024C42.715 14.9217 43.076 25.2923 34.6303 33.75Z" fill="url(#paint1_linear)"/>
<defs>
<linearGradient id="paint0_linear" x1="23.9006" y1="-13.446" x2="-29.899" y2="104.101" gradientUnits="userSpaceOnUse">
<stop stop-color="#00DECA"/>
<stop offset="0.37798" stop-color="#3A8AFA"/>
<stop offset="1" stop-color="#1A6AF4"/>
</linearGradient>
<linearGradient id="paint1_linear" x1="35.7783" y1="-9.74612" x2="-17.6907" y2="107.017" gradientUnits="userSpaceOnUse">
<stop stop-color="#00DECA"/>
<stop offset="0.37798" stop-color="#3A8AFA"/>
<stop offset="1" stop-color="#1A6AF4"/>
</linearGradient>
</defs>
</svg>
