<svg width="44" height="62" viewBox="0 0 44 62" fill="none" xmlns="http://www.w3.org/2000/svg">
<path d="M21.7159 14.8665C17.4066 14.9354 13.2939 16.713 10.1351 19.8718C6.97638 23.0305 5.19888 27.1433 5.12988 31.4529C5.06013 35.9178 6.67988 40.1119 9.69238 43.2707C10.8692 44.5153 11.7802 45.9866 12.3699 47.5948C12.9596 49.203 13.2156 50.9144 13.1224 52.6248H12.3571C12.0919 52.6248 11.8376 52.7301 11.65 52.9177C11.4625 53.1052 11.3571 53.3596 11.3571 53.6248C11.3571 53.89 11.4625 54.1444 11.65 54.3319C11.8376 54.5194 12.0919 54.6248 12.3571 54.6248H31.6424C31.9076 54.6248 32.162 54.5194 32.3495 54.3319C32.537 54.1444 32.6424 53.89 32.6424 53.6248C32.6424 53.3596 32.537 53.1052 32.3495 52.9177C32.162 52.7301 31.9076 52.6248 31.6424 52.6248H30.6799C30.4455 49.2498 31.6434 45.9858 34.1735 43.3373C34.1765 43.334 34.1796 43.3329 34.1826 43.3297C37.1621 40.1268 38.803 36.0097 38.803 31.7347C38.8042 29.5007 38.3614 27.2887 37.5004 25.2273C36.6394 23.1659 35.3774 21.2961 33.7876 19.7266C32.1978 18.1572 30.312 16.9192 28.2397 16.0848C26.1674 15.2504 23.9499 14.836 21.7161 14.8659L21.7159 14.8665ZM32.7223 41.9614C29.8694 44.9498 28.4554 48.7498 28.6774 52.6248H15.1258C15.2158 50.6595 14.9092 48.6962 14.2242 46.8519C13.5393 45.0076 12.49 43.3202 11.139 41.89C8.492 39.1139 7.06825 35.4189 7.12963 31.4825C7.19013 27.695 8.75988 24.0744 11.5493 21.2849C14.3386 18.4954 17.9608 16.9263 21.7471 16.8658C23.7156 16.8402 25.6695 17.2059 27.4955 17.9418C29.3214 18.6776 30.983 19.7688 32.3837 21.1521C33.7844 22.5354 34.8963 24.1832 35.6549 25.9998C36.4135 27.8163 36.8037 29.7655 36.8028 31.7342C36.8028 35.4998 35.3536 39.1307 32.7223 41.9614ZM27.8925 59.3748H16.107C15.8418 59.3748 15.5874 59.4801 15.3999 59.6677C15.2124 59.8552 15.107 60.1096 15.107 60.3748C15.107 60.64 15.2124 60.8944 15.3999 61.0819C15.5874 61.2694 15.8418 61.3748 16.107 61.3748H27.8925C28.1577 61.3748 28.4121 61.2694 28.5996 61.0819C28.7872 60.8944 28.8925 60.64 28.8925 60.3748C28.8925 60.1096 28.7872 59.8552 28.5996 59.6677C28.4121 59.4801 28.1577 59.3748 27.8925 59.3748ZM20.6248 1.67041V8.23291C20.6248 8.49813 20.7301 8.75248 20.9176 8.94002C21.1052 9.12755 21.3595 9.23291 21.6248 9.23291C21.89 9.23291 22.1443 9.12755 22.3319 8.94002C22.5194 8.75248 22.6248 8.49813 22.6248 8.23291V1.67041C22.6248 1.40519 22.5194 1.15084 22.3319 0.963303C22.1443 0.775767 21.89 0.67041 21.6248 0.67041C21.3595 0.67041 21.1052 0.775767 20.9176 0.963303C20.7301 1.15084 20.6248 1.40519 20.6248 1.67041ZM41.8705 9.98329L37.0498 14.5373C36.9537 14.6273 36.8763 14.7354 36.8221 14.8554C36.7679 14.9754 36.7379 15.1049 36.7338 15.2365C36.7298 15.3681 36.7518 15.4992 36.7986 15.6223C36.8453 15.7454 36.916 15.858 37.0064 15.9538C37.0968 16.0495 37.2052 16.1264 37.3254 16.1801C37.4456 16.2338 37.5753 16.2633 37.7069 16.2668C37.8385 16.2703 37.9695 16.2477 38.0924 16.2004C38.2153 16.1532 38.3277 16.0821 38.423 15.9913L43.2438 11.4373C43.4353 11.2549 43.5468 11.004 43.5538 10.7396C43.5608 10.4752 43.4627 10.2188 43.2811 10.0265C43.0995 9.8342 42.8491 9.72169 42.5847 9.7136C42.3204 9.7055 42.0636 9.80247 41.8705 9.98329ZM6.06288 15.661C6.26008 15.6611 6.45289 15.6029 6.61707 15.4936C6.78126 15.3844 6.90949 15.2291 6.98564 15.0472C7.06178 14.8653 7.08245 14.6649 7.04504 14.4713C7.00763 14.2777 6.91381 14.0995 6.77538 13.959L2.15488 9.27154C2.06267 9.17799 1.95295 9.10353 1.83197 9.05239C1.71098 9.00126 1.58111 8.97445 1.44977 8.9735C1.31843 8.97256 1.18818 8.99749 1.06648 9.04688C0.944771 9.09627 0.833984 9.16914 0.740442 9.26135C0.646899 9.35355 0.572434 9.46328 0.521298 9.58426C0.470161 9.70525 0.443355 9.83511 0.442409 9.96646C0.441463 10.0978 0.466396 10.228 0.515784 10.3498C0.565173 10.4715 0.63805 10.5822 0.730254 10.6758L5.35075 15.3633C5.44369 15.4578 5.55454 15.5328 5.67682 15.5839C5.7991 15.635 5.93035 15.6613 6.06288 15.661Z" fill="#69A09F"/>
</svg>
