<svg width="60" height="62" viewBox="0 0 60 62" fill="none" xmlns="http://www.w3.org/2000/svg">
<path d="M60.3204 17.4266C59.4777 16.669 58.4192 16.194 57.2931 16.0679C57.2381 15.6834 57.0601 15.3269 56.7857 15.052L56.5157 14.7819L59.5975 11.7001C59.9056 11.392 60.15 11.0262 60.3168 10.6236C60.4835 10.2211 60.5693 9.78961 60.5693 9.35389C60.5693 8.91816 60.4835 8.4867 60.3168 8.08414C60.15 7.68158 59.9056 7.3158 59.5975 7.0077C59.2894 6.69959 58.9236 6.45519 58.5211 6.28844C58.1185 6.12169 57.687 6.03587 57.2513 6.03587C56.8156 6.03587 56.3841 6.12169 55.9816 6.28844C55.579 6.45519 55.2132 6.69959 54.9051 7.0077L51.8281 10.0895L48.7427 7.0077C48.1204 6.38545 47.2765 6.03587 46.3965 6.03587C45.5165 6.03587 44.6725 6.38545 44.0503 7.0077C43.428 7.62994 43.0784 8.47389 43.0784 9.35389C43.0784 10.2339 43.428 11.0778 44.0503 11.7001L47.1309 14.7819L43.8493 18.0636C43.8195 18.0938 43.792 18.1262 43.7669 18.1604L43.7512 18.181C43.7267 18.2159 43.7044 18.2523 43.6846 18.29C43.6654 18.3292 43.6488 18.3697 43.6349 18.4111C43.6334 18.4169 43.6314 18.4226 43.6289 18.428C43.6166 18.4678 43.6065 18.5083 43.5986 18.5491C43.5986 18.5491 43.5986 18.5491 43.5986 18.5564L43.0004 22.1747C42.9703 22.3534 42.9795 22.5364 43.0274 22.7112C43.0753 22.8859 43.1607 23.0481 43.2777 23.1865C43.3948 23.3248 43.5405 23.436 43.7049 23.5122C43.8693 23.5884 44.0483 23.6279 44.2295 23.6278C44.2972 23.6276 44.3649 23.6219 44.4317 23.6109L48.0476 23.0078H48.0548C48.0958 23.0001 48.1362 22.99 48.1759 22.9775L48.1941 22.9703C48.2357 22.9574 48.2762 22.9412 48.3152 22.9218C48.3529 22.902 48.3893 22.8797 48.4242 22.8552L48.4448 22.8395C48.479 22.8144 48.5113 22.7869 48.5416 22.7571L51.8233 19.4755L52.0933 19.7455C52.3879 20.0403 52.7757 20.2235 53.1904 20.2638C53.6748 22.0548 54.4547 23.1156 55.5566 23.4946C56.1052 23.6835 56.5835 23.6387 56.9673 23.6036C57.2847 23.5531 57.609 23.5679 57.9204 23.6472C58.5452 23.824 59.1143 24.3132 59.6157 25.1003C59.6974 25.23 59.8107 25.3369 59.945 25.411C60.0792 25.4851 60.2301 25.5241 60.3834 25.5241H60.4113C60.5693 25.5194 60.7234 25.4734 60.8583 25.3908C60.9932 25.3082 61.1041 25.1918 61.1802 25.0531C62.6188 22.4193 62.2591 19.2127 60.3204 17.4266ZM56.1875 8.2925C56.47 8.01619 56.85 7.86237 57.2451 7.86438C57.6403 7.8664 58.0187 8.02408 58.2983 8.30325C58.578 8.58242 58.7363 8.96057 58.739 9.35571C58.7417 9.75084 58.5885 10.1311 58.3127 10.4141L58.0705 10.6562L55.9453 8.5359L56.1875 8.2925ZM54.6617 9.81949L56.7845 11.9435L55.2309 13.4971L53.1081 11.3743L54.6617 9.81949ZM44.9209 21.6867L45.1002 20.5968L46.0071 21.5038L44.9209 21.6867ZM47.8998 20.8305L45.7734 18.7054L48.4133 16.0655L50.5361 18.1895L47.8998 20.8305ZM53.3696 18.4535L52.4663 17.5501L45.3351 10.4141C45.0659 10.1301 44.9182 9.75224 44.9234 9.36098C44.9286 8.96971 45.0864 8.59594 45.363 8.31925C45.6397 8.04256 46.0135 7.88481 46.4048 7.87959C46.796 7.87436 47.1739 8.02208 47.4579 8.29129L51.1803 12.0149L54.5866 15.4213L55.49 16.3246L53.3696 18.4535ZM60.1 22.8577C59.6207 22.4105 59.0428 22.0824 58.4132 21.8998C57.8873 21.7591 57.3387 21.7237 56.799 21.7957C56.4878 21.8247 56.3146 21.8368 56.1463 21.7787C55.628 21.6007 55.1776 20.8039 54.8748 19.5179L56.558 17.8347C57.2011 17.8516 58.2667 18.0079 59.0901 18.7659C60.1243 19.7153 60.4815 21.3004 60.1 22.8552V22.8577ZM13.0188 14.5894H5.13559C4.89472 14.5894 4.66371 14.6851 4.49339 14.8554C4.32307 15.0257 4.22738 15.2567 4.22738 15.4976C4.22738 15.7384 4.32307 15.9695 4.49339 16.1398C4.66371 16.3101 4.89472 16.4058 5.13559 16.4058H13.0188C13.2597 16.4058 13.4907 16.3101 13.661 16.1398C13.8313 15.9695 13.927 15.7384 13.927 15.4976C13.927 15.2567 13.8313 15.0257 13.661 14.8554C13.4907 14.6851 13.2597 14.5894 13.0188 14.5894ZM31 12.2729C31.6381 12.2731 32.262 12.0841 32.7927 11.7297C33.3234 11.3753 33.737 10.8715 33.9814 10.282C34.2257 9.69247 34.2897 9.04375 34.1652 8.41786C34.0408 7.79198 33.7335 7.21706 33.2823 6.76583C32.8311 6.3146 32.2561 6.00734 31.6303 5.8829C31.0044 5.75847 30.3557 5.82245 29.7661 6.06677C29.1766 6.31108 28.6728 6.72475 28.3184 7.25543C27.9641 7.78612 27.775 8.40999 27.7753 9.04813C27.7762 9.90308 28.1163 10.7227 28.7208 11.3273C29.3254 11.9318 30.145 12.2719 31 12.2729ZM31 7.63859C31.2788 7.63835 31.5515 7.72082 31.7834 7.87555C32.0154 8.03029 32.1962 8.25034 32.3031 8.50788C32.41 8.76542 32.4381 9.04887 32.3838 9.32237C32.3296 9.59587 32.1954 9.84714 31.9983 10.0444C31.8013 10.2416 31.5501 10.376 31.2766 10.4305C31.0032 10.485 30.7197 10.4571 30.4621 10.3505C30.2045 10.2438 29.9842 10.0632 29.8293 9.83134C29.6744 9.59952 29.5917 9.32696 29.5917 9.04813C29.5917 8.6745 29.74 8.31617 30.0041 8.05186C30.2682 7.78756 30.6264 7.63892 31 7.63859ZM22.5537 12.5126L23.7755 14.6305C23.9638 14.9538 24.2619 15.1985 24.6156 15.3201C24.9693 15.4417 25.355 15.4321 25.7021 15.2929L26.7193 14.8812C27.1471 15.1947 27.608 15.4603 28.0938 15.6732L28.2451 16.763C28.2994 17.1324 28.4845 17.4701 28.7667 17.7146C29.049 17.9591 29.4096 18.0941 29.783 18.095H32.2267C32.6001 18.0941 32.9607 17.9591 33.243 17.7146C33.5252 17.4701 33.7103 17.1324 33.7646 16.763L33.9159 15.6732C34.4 15.46 34.8593 15.1944 35.2855 14.8812L36.3027 15.2929C36.6499 15.4318 37.0354 15.4413 37.3891 15.3198C37.7427 15.1982 38.0409 14.9536 38.2293 14.6305L39.4511 12.5126C39.6369 12.1882 39.6999 11.8077 39.6285 11.4407C39.5572 11.0737 39.3563 10.7446 39.0624 10.5134L38.1978 9.83766C38.2539 9.31441 38.2539 8.78668 38.1978 8.26344L39.0624 7.58773C39.3563 7.35653 39.5572 7.0274 39.6285 6.66039C39.6999 6.29337 39.6369 5.91293 39.4511 5.58848L38.2245 3.4657C38.0363 3.14245 37.7382 2.8976 37.3845 2.77579C37.0308 2.65398 36.6452 2.66332 36.2979 2.80211L35.2807 3.21383C34.8533 2.89965 34.3924 2.63402 33.9062 2.42188L33.7549 1.33203C33.7004 0.962696 33.5152 0.625157 33.233 0.380734C32.9508 0.136311 32.5903 0.00121932 32.217 0L29.7782 0C29.4048 0.00121932 29.0443 0.136311 28.7621 0.380734C28.4799 0.625157 28.2948 0.962696 28.2403 1.33203L28.0938 2.42188C27.6094 2.63396 27.15 2.89917 26.7242 3.21262L25.707 2.8009C25.3597 2.66185 24.9739 2.65238 24.6202 2.77421C24.2665 2.89605 23.9684 3.14106 23.7804 3.46449L22.5537 5.58242C22.3679 5.90688 22.3049 6.28732 22.3763 6.65433C22.4477 7.02135 22.6486 7.35048 22.9424 7.58168L23.807 8.25738C23.751 8.78062 23.751 9.30836 23.807 9.8316L22.9424 10.5073C22.6471 10.7388 22.4451 11.069 22.3737 11.4374C22.3023 11.8058 22.3662 12.1876 22.5537 12.5126ZM25.6259 9.75168C25.5661 9.28414 25.5661 8.8109 25.6259 8.34336C25.6606 8.07568 25.6252 7.80357 25.5231 7.5537C25.421 7.30384 25.2557 7.0848 25.0434 6.91809L24.2405 6.29688L25.2335 4.57734L26.178 4.95879C26.4288 5.05941 26.7014 5.09312 26.9691 5.0566C27.2368 5.02009 27.4904 4.91461 27.705 4.75051C28.0787 4.46355 28.4882 4.22662 28.9232 4.04574C29.1716 3.94247 29.389 3.77666 29.5543 3.56446C29.7196 3.35227 29.8272 3.10089 29.8666 2.8348L30.007 1.81641H31.993L32.1334 2.82391C32.1728 3.09 32.2804 3.34137 32.4457 3.55357C32.611 3.76576 32.8284 3.93157 33.0768 4.03484C33.5118 4.21572 33.9213 4.45265 34.295 4.73961C34.5096 4.90371 34.7632 5.00919 35.0309 5.04571C35.2986 5.08222 35.5712 5.04851 35.822 4.94789L36.7665 4.56645L37.7595 6.28598L36.9566 6.91203C36.7443 7.07875 36.579 7.29778 36.4769 7.54765C36.3748 7.79751 36.3394 8.06963 36.3741 8.3373C36.4338 8.80525 36.4338 9.27889 36.3741 9.74684C36.3395 10.0143 36.3749 10.2862 36.4771 10.5359C36.5792 10.7855 36.7444 11.0044 36.9566 11.1709L37.7595 11.7982L36.7665 13.5165L35.8232 13.135C35.5721 13.0346 35.2993 13.0011 35.0314 13.0378C34.7635 13.0745 34.5097 13.1802 34.295 13.3445C33.9214 13.6313 33.5118 13.8678 33.0768 14.0481C32.8276 14.1522 32.6097 14.3192 32.4443 14.5327C32.279 14.7462 32.1719 14.999 32.1334 15.2663L31.993 16.2726H30.007L29.8666 15.2663C29.8281 14.999 29.721 14.7462 29.5557 14.5327C29.3903 14.3192 29.1724 14.1522 28.9232 14.0481C28.4882 13.8678 28.0786 13.6313 27.705 13.3445C27.4905 13.1803 27.2369 13.0747 26.9692 13.038C26.7015 13.0013 26.4289 13.0347 26.178 13.135L25.2335 13.5165L24.2405 11.7982L25.0434 11.1709C25.2547 11.0047 25.4194 10.7867 25.5215 10.538C25.6236 10.2893 25.6595 10.0184 25.6259 9.75168ZM13.0188 18.2198H5.13559C4.89472 18.2198 4.66371 18.3155 4.49339 18.4858C4.32307 18.6561 4.22738 18.8871 4.22738 19.128C4.22738 19.3688 4.32307 19.5998 4.49339 19.7702C4.66371 19.9405 4.89472 20.0362 5.13559 20.0362H13.0188C13.2597 20.0362 13.4907 19.9405 13.661 19.7702C13.8313 19.5998 13.927 19.3688 13.927 19.128C13.927 18.8871 13.8313 18.6561 13.661 18.4858C13.4907 18.3155 13.2597 18.2198 13.0188 18.2198ZM28.5067 37.5948C28.3741 37.7958 28.3267 38.0413 28.3751 38.2773C28.4235 38.5132 28.5636 38.7203 28.7646 38.8529C29.4084 39.279 30.1603 39.5126 30.9322 39.5262H31C31.7975 39.5234 32.577 39.2891 33.2439 38.8517C33.4423 38.718 33.5799 38.5113 33.6268 38.2766C33.6737 38.0419 33.6261 37.7982 33.4943 37.5985C33.3625 37.3987 33.1572 37.2591 32.923 37.2098C32.6888 37.1606 32.4447 37.2058 32.2436 37.3356C31.876 37.5799 31.4444 37.7103 31.003 37.7103C30.5616 37.7103 30.13 37.5799 29.7624 37.3356C29.5611 37.2041 29.3159 37.1578 29.0805 37.2068C28.8451 37.2559 28.6387 37.3962 28.5067 37.5972V37.5948ZM27.8273 33.566C28.0682 33.566 28.2992 33.4703 28.4695 33.3C28.6399 33.1296 28.7355 32.8986 28.7355 32.6578V31.7387C28.7355 31.4978 28.6399 31.2668 28.4695 31.0965C28.2992 30.9262 28.0682 30.8305 27.8273 30.8305C27.5865 30.8305 27.3555 30.9262 27.1851 31.0965C27.0148 31.2668 26.9191 31.4978 26.9191 31.7387V32.6602C26.9191 32.9011 27.0148 33.1321 27.1851 33.3024C27.3555 33.4727 27.5865 33.5684 27.8273 33.5684V33.566ZM50.2236 52.0703C50.2164 51.9952 50.2079 51.9189 50.1982 51.8511C49.8022 48.6543 47.3949 45.9793 44.2101 45.191L44.1665 45.1813L40.5107 44.4717C40.4283 44.3834 40.3356 44.3053 40.2346 44.2392L38.0016 42.7994C37.8179 42.6821 37.6112 42.6057 37.3954 42.5752C37.1796 42.5447 36.9598 42.5609 36.7507 42.6226L36.4746 42.2145C37.325 41.4955 38.0083 40.5997 38.4769 39.5896C38.9456 38.5794 39.1884 37.4792 39.1884 36.3657V29.6861C39.1878 29.3017 39.0818 28.9247 38.882 28.5963C39.0833 28.1485 39.1877 27.6632 39.1884 27.1722V21.8344C39.1877 21.4675 39.0417 21.1158 38.7823 20.8564C38.5228 20.597 38.1711 20.451 37.8043 20.4503H26.6334C24.4464 20.4503 22.8116 22.5779 22.8116 24.4803V36.3741C22.8116 37.5002 23.0597 38.6125 23.5384 39.6318C24.017 40.651 24.7145 41.5523 25.5811 42.2714L25.2929 42.7061C25.0594 42.6464 24.815 42.6431 24.58 42.6966C24.345 42.7501 24.1261 42.8588 23.9414 43.0137L22.3854 44.33C22.3739 44.3399 22.363 44.3504 22.3527 44.3615L17.8432 45.1886C17.8252 45.1909 17.8074 45.1945 17.7899 45.1995C14.6051 45.9841 12.1978 48.6591 11.803 51.8487C11.7921 51.9238 11.7836 52.0001 11.7764 52.0727L11.5632 54.2851C11.5614 54.3142 11.5614 54.3433 11.5632 54.3723V58.2364C11.5642 59.2334 11.9604 60.1894 12.6649 60.8949C13.3695 61.6004 14.325 61.9978 15.322 62H46.678C47.6759 61.999 48.6326 61.6022 49.3382 60.8966C50.0438 60.191 50.4406 59.2343 50.4416 58.2364V54.3711C50.4434 54.3421 50.4434 54.3129 50.4416 54.2839L50.2236 52.0703ZM37.2097 44.4596L38.9801 45.6003L34.8399 51.1924L32.3381 48.7838L37.2097 44.4596ZM31 47.5402L26.7617 43.779L27.1044 43.262C28.1588 43.7825 29.3192 44.0523 30.495 44.0503H31.5195C32.715 44.0504 33.8939 43.7696 34.961 43.2305L35.2988 43.7294L31 47.5402ZM24.628 24.4803C24.628 23.4777 25.5229 22.2667 26.6334 22.2667H37.372V27.171C37.3718 27.31 37.3539 27.4483 37.3187 27.5827C37.2359 27.5726 37.1526 27.5673 37.0692 27.567H24.9308C24.8294 27.5677 24.7282 27.5758 24.628 27.5912V24.4803ZM24.628 36.3741V29.6861C24.628 29.6058 24.6599 29.5288 24.7167 29.4721C24.7735 29.4153 24.8505 29.3834 24.9308 29.3834H37.0692C37.1495 29.3834 37.2265 29.4153 37.2833 29.4721C37.3401 29.5288 37.372 29.6058 37.372 29.6861V36.3741C37.37 37.9276 36.752 39.417 35.6536 40.5155C34.5551 41.614 33.0657 42.2319 31.5122 42.2339H30.4878C28.9343 42.2319 27.4449 41.614 26.3464 40.5155C25.2479 39.417 24.63 37.9276 24.628 36.3741ZM24.9138 44.5698L29.668 48.7838L27.2304 51.1306L23.7598 45.5482L24.9138 44.5698ZM48.6252 58.2364C48.6249 58.7527 48.4196 59.2478 48.0545 59.6129C47.6894 59.978 47.1943 60.1833 46.678 60.1836H43.957V56.6392C43.957 56.3983 43.8613 56.1673 43.691 55.997C43.5207 55.8267 43.2897 55.731 43.0488 55.731C42.808 55.731 42.577 55.8267 42.4066 55.997C42.2363 56.1673 42.1406 56.3983 42.1406 56.6392V60.1836H19.8594V56.6392C19.8594 56.3983 19.7637 56.1673 19.5934 55.997C19.423 55.8267 19.192 55.731 18.9512 55.731C18.7103 55.731 18.4793 55.8267 18.309 55.997C18.1387 56.1673 18.043 56.3983 18.043 56.6392V60.1836H15.322C14.8057 60.1833 14.3106 59.978 13.9455 59.6129C13.5804 59.2478 13.3751 58.7527 13.3748 58.2364V54.4159L13.5855 52.2447C13.5855 52.1926 13.5964 52.1393 13.6037 52.08C13.9076 49.6339 15.7519 47.5826 18.198 46.9698L22.0645 46.2578L22.0778 46.2832L25.8838 52.4045C26.0026 52.5965 26.1629 52.7594 26.353 52.8811C26.5431 53.0029 26.7581 53.0804 26.9821 53.1081C27.0448 53.1153 27.1079 53.119 27.171 53.119C27.5617 53.1192 27.9373 52.9677 28.2185 52.6964L31.0036 50.0178L33.8312 52.7375C34.1115 53.0078 34.4856 53.1593 34.875 53.1602C34.9174 53.1602 34.9598 53.1602 35.0021 53.1602C35.2164 53.1424 35.4244 53.0792 35.6123 52.9748C35.8002 52.8704 35.9637 52.7272 36.092 52.5547L40.6282 46.4261C40.6427 46.4068 40.6548 46.3862 40.6681 46.3656L43.7936 46.9711C46.2421 47.5826 48.0887 49.6351 48.3951 52.0897C48.4012 52.1418 48.4072 52.195 48.4133 52.2507L48.6228 54.4183L48.6252 58.2364ZM31 56.6392C30.8204 56.6392 30.6448 56.6924 30.4954 56.7922C30.3461 56.892 30.2297 57.0339 30.1609 57.1998C30.0922 57.3658 30.0742 57.5484 30.1092 57.7246C30.1443 57.9007 30.2308 58.0626 30.3578 58.1896C30.4848 58.3166 30.6466 58.4031 30.8228 58.4381C30.999 58.4732 31.1816 58.4552 31.3476 58.3865C31.5135 58.3177 31.6553 58.2013 31.7551 58.052C31.8549 57.9026 31.9082 57.727 31.9082 57.5474C31.9082 57.3065 31.8125 57.0755 31.6422 56.9052C31.4719 56.7349 31.2409 56.6392 31 56.6392ZM18.1544 21.1587V13.0781C18.1544 12.5 17.9247 11.9456 17.516 11.5369C17.1072 11.1281 16.5528 10.8984 15.9747 10.8984H2.17969C1.6016 10.8984 1.04719 11.1281 0.638416 11.5369C0.229645 11.9456 0 12.5 0 13.0781L0 21.1672C0 21.7453 0.229645 22.2997 0.638416 22.7085C1.04719 23.1172 1.6016 23.3469 2.17969 23.3469H5.32812C5.37548 23.3468 5.42237 23.3561 5.46605 23.3744C5.50972 23.3927 5.54929 23.4196 5.58242 23.4534L7.25352 25.1245C7.38205 25.2532 7.53468 25.3552 7.70267 25.4248C7.87066 25.4944 8.05072 25.5303 8.23256 25.5303C8.4144 25.5303 8.59446 25.4944 8.76245 25.4248C8.93044 25.3552 9.08306 25.2532 9.2116 25.1245L10.8827 23.4534C10.9158 23.4196 10.9554 23.3927 10.9991 23.3744C11.0427 23.3561 11.0896 23.3468 11.137 23.3469H15.9807C16.5582 23.3453 17.1114 23.1146 17.519 22.7055C17.9265 22.2963 18.155 21.7422 18.1544 21.1648V21.1587ZM9.60031 22.1602L8.23438 23.5297L6.86965 22.1602C6.6675 21.9576 6.42714 21.7972 6.16252 21.6883C5.8979 21.5794 5.61428 21.5241 5.32812 21.5256H2.17969C2.08334 21.5256 1.99094 21.4874 1.92281 21.4192C1.85468 21.3511 1.81641 21.2587 1.81641 21.1623V13.0781C1.81641 12.9818 1.85468 12.8894 1.92281 12.8212C1.99094 12.7531 2.08334 12.7148 2.17969 12.7148H15.9844C16.0807 12.7148 16.1731 12.7531 16.2413 12.8212C16.3094 12.8894 16.3477 12.9818 16.3477 13.0781V21.1672C16.3477 21.2635 16.3094 21.3559 16.2413 21.4241C16.1731 21.4922 16.0807 21.5305 15.9844 21.5305H11.1406C10.855 21.5285 10.5718 21.5831 10.3074 21.6911C10.0431 21.7992 9.80272 21.9586 9.60031 22.1602ZM31 52.4094C30.8204 52.4094 30.6448 52.4626 30.4954 52.5624C30.3461 52.6622 30.2297 52.8041 30.1609 52.97C30.0922 53.136 30.0742 53.3186 30.1092 53.4948C30.1443 53.6709 30.2308 53.8328 30.3578 53.9598C30.4848 54.0868 30.6466 54.1733 30.8228 54.2083C30.999 54.2434 31.1816 54.2254 31.3476 54.1566C31.5135 54.0879 31.6553 53.9715 31.7551 53.8221C31.8549 53.6728 31.9082 53.4972 31.9082 53.3176C31.9082 53.0767 31.8125 52.8457 31.6422 52.6754C31.4719 52.5051 31.2409 52.4094 31 52.4094ZM34.1727 33.5684C34.4135 33.5684 34.6445 33.4727 34.8149 33.3024C34.9852 33.1321 35.0809 32.9011 35.0809 32.6602V31.7387C35.0809 31.4978 34.9852 31.2668 34.8149 31.0965C34.6445 30.9262 34.4135 30.8305 34.1727 30.8305C33.9318 30.8305 33.7008 30.9262 33.5305 31.0965C33.3601 31.2668 33.2645 31.4978 33.2645 31.7387V32.6602C33.2645 32.9011 33.3601 33.1321 33.5305 33.3024C33.7008 33.4727 33.9318 33.5684 34.1727 33.5684Z" fill="#B86AFF"/>
</svg>
